<svg id="visual" viewBox="0 0 1920 800" width="1920" height="800" xmlns="http://www.w3.org/2000/svg" xmlns:xlink="http://www.w3.org/1999/xlink" version="1.1"><path d="M0 679L160 643.2C320 607.3 640 535.7 960 497.7C1280 459.7 1600 455.3 1760 453.2L1920 451L1920 0L1760 0C1600 0 1280 0 960 0C640 0 320 0 160 0L0 0Z" fill="#87fffb"></path><path d="M0 46L160 46.3C320 46.7 640 47.3 960 39.8C1280 32.3 1600 16.7 1760 8.8L1920 1L1920 0L1760 0C1600 0 1280 0 960 0C640 0 320 0 160 0L0 0Z" fill="#95fffb"></path><path d="M0 390L160 363.3C320 336.7 640 283.3 960 235.5C1280 187.7 1600 145.3 1760 124.2L1920 103L1920 0L1760 0C1600 0 1280 0 960 0C640 0 320 0 160 0L0 0Z" fill="#a2fffc"></path><path d="M0 530L160 530.2C320 530.3 640 530.7 960 533C1280 535.3 1600 539.7 1760 541.8L1920 544L1920 0L1760 0C1600 0 1280 0 960 0C640 0 320 0 160 0L0 0Z" fill="#aefffc"></path><path d="M0 350L160 334.5C320 319 640 288 960 288.3C1280 288.7 1600 320.3 1760 336.2L1920 352L1920 0L1760 0C1600 0 1280 0 960 0C640 0 320 0 160 0L0 0Z" fill="#bafffd"></path><path d="M0 122L160 137C320 152 640 182 960 216.5C1280 251 1600 290 1760 309.5L1920 329L1920 0L1760 0C1600 0 1280 0 960 0C640 0 320 0 160 0L0 0Z" fill="#c5fffd"></path><path d="M0 221L160 224.2C320 227.3 640 233.7 960 245.5C1280 257.3 1600 274.7 1760 283.3L1920 292L1920 0L1760 0C1600 0 1280 0 960 0C640 0 320 0 160 0L0 0Z" fill="#cffffd"></path><path d="M0 336L160 335.8C320 335.7 640 335.3 960 326.7C1280 318 1600 301 1760 292.5L1920 284L1920 0L1760 0C1600 0 1280 0 960 0C640 0 320 0 160 0L0 0Z" fill="#d9fffe"></path><path d="M0 121L160 148.2C320 175.3 640 229.7 960 257.8C1280 286 1600 288 1760 289L1920 290L1920 0L1760 0C1600 0 1280 0 960 0C640 0 320 0 160 0L0 0Z" fill="#e3fffe"></path><path d="M0 0L160 17.5C320 35 640 70 960 106.3C1280 142.7 1600 180.3 1760 199.2L1920 218L1920 0L1760 0C1600 0 1280 0 960 0C640 0 320 0 160 0L0 0Z" fill="#edfffe"></path><path d="M0 125L160 112.8C320 100.7 640 76.3 960 82.5C1280 88.7 1600 125.3 1760 143.7L1920 162L1920 0L1760 0C1600 0 1280 0 960 0C640 0 320 0 160 0L0 0Z" fill="#f6ffff"></path><path d="M0 79L160 77C320 75 640 71 960 66.5C1280 62 1600 57 1760 54.5L1920 52L1920 0L1760 0C1600 0 1280 0 960 0C640 0 320 0 160 0L0 0Z" fill="#ffffff"></path></svg>