<svg id="visual" viewBox="0 0 1920 800" width="1920" height="800" xmlns="http://www.w3.org/2000/svg" xmlns:xlink="http://www.w3.org/1999/xlink" version="1.1"><path d="M0 624L160 542C320 460 640 296 960 266.3C1280 236.7 1600 341.3 1760 393.7L1920 446L1920 0L1760 0C1600 0 1280 0 960 0C640 0 320 0 160 0L0 0Z" fill="#87fffb"></path><path d="M0 241L160 235.5C320 230 640 219 960 202C1280 185 1600 162 1760 150.5L1920 139L1920 0L1760 0C1600 0 1280 0 960 0C640 0 320 0 160 0L0 0Z" fill="#95fffb"></path><path d="M0 488L160 448.3C320 408.7 640 329.3 960 315.2C1280 301 1600 352 1760 377.5L1920 403L1920 0L1760 0C1600 0 1280 0 960 0C640 0 320 0 160 0L0 0Z" fill="#a2fffc"></path><path d="M0 146L160 138.8C320 131.7 640 117.3 960 172.8C1280 228.3 1600 353.7 1760 416.3L1920 479L1920 0L1760 0C1600 0 1280 0 960 0C640 0 320 0 160 0L0 0Z" fill="#aefffc"></path><path d="M0 17L160 52.3C320 87.7 640 158.3 960 245.8C1280 333.3 1600 437.7 1760 489.8L1920 542L1920 0L1760 0C1600 0 1280 0 960 0C640 0 320 0 160 0L0 0Z" fill="#bafffd"></path><path d="M0 431L160 408.8C320 386.7 640 342.3 960 295.8C1280 249.3 1600 200.7 1760 176.3L1920 152L1920 0L1760 0C1600 0 1280 0 960 0C640 0 320 0 160 0L0 0Z" fill="#c5fffd"></path><path d="M0 257L160 273C320 289 640 321 960 312C1280 303 1600 253 1760 228L1920 203L1920 0L1760 0C1600 0 1280 0 960 0C640 0 320 0 160 0L0 0Z" fill="#cffffd"></path><path d="M0 208L160 186.3C320 164.7 640 121.3 960 144.8C1280 168.3 1600 258.7 1760 303.8L1920 349L1920 0L1760 0C1600 0 1280 0 960 0C640 0 320 0 160 0L0 0Z" fill="#d9fffe"></path><path d="M0 145L160 124C320 103 640 61 960 61.8C1280 62.7 1600 106.3 1760 128.2L1920 150L1920 0L1760 0C1600 0 1280 0 960 0C640 0 320 0 160 0L0 0Z" fill="#e3fffe"></path><path d="M0 113L160 123.3C320 133.7 640 154.3 960 151.7C1280 149 1600 123 1760 110L1920 97L1920 0L1760 0C1600 0 1280 0 960 0C640 0 320 0 160 0L0 0Z" fill="#edfffe"></path><path d="M0 101L160 109C320 117 640 133 960 135C1280 137 1600 125 1760 119L1920 113L1920 0L1760 0C1600 0 1280 0 960 0C640 0 320 0 160 0L0 0Z" fill="#f6ffff"></path><path d="M0 34L160 37.2C320 40.3 640 46.7 960 43C1280 39.3 1600 25.7 1760 18.8L1920 12L1920 0L1760 0C1600 0 1280 0 960 0C640 0 320 0 160 0L0 0Z" fill="#ffffff"></path></svg>