<svg id="visual" viewBox="0 0 1920 800" width="1920" height="800" xmlns="http://www.w3.org/2000/svg" xmlns:xlink="http://www.w3.org/1999/xlink" version="1.1"><path d="M0 390L160 397.8C320 405.7 640 421.3 960 428.2C1280 435 1600 433 1760 432L1920 431L1920 0L1760 0C1600 0 1280 0 960 0C640 0 320 0 160 0L0 0Z" fill="#87fffb"></path><path d="M0 317L160 375.2C320 433.3 640 549.7 960 554.3C1280 559 1600 452 1760 398.5L1920 345L1920 0L1760 0C1600 0 1280 0 960 0C640 0 320 0 160 0L0 0Z" fill="#95fffb"></path><path d="M0 430L160 377.8C320 325.7 640 221.3 960 152.8C1280 84.3 1600 51.7 1760 35.3L1920 19L1920 0L1760 0C1600 0 1280 0 960 0C640 0 320 0 160 0L0 0Z" fill="#a2fffc"></path><path d="M0 562L160 561.7C320 561.3 640 560.7 960 521.3C1280 482 1600 404 1760 365L1920 326L1920 0L1760 0C1600 0 1280 0 960 0C640 0 320 0 160 0L0 0Z" fill="#aefffc"></path><path d="M0 137L160 124.8C320 112.7 640 88.3 960 115.8C1280 143.3 1600 222.7 1760 262.3L1920 302L1920 0L1760 0C1600 0 1280 0 960 0C640 0 320 0 160 0L0 0Z" fill="#bafffd"></path><path d="M0 49L160 68C320 87 640 125 960 159.8C1280 194.7 1600 226.3 1760 242.2L1920 258L1920 0L1760 0C1600 0 1280 0 960 0C640 0 320 0 160 0L0 0Z" fill="#c5fffd"></path><path d="M0 272L160 229.7C320 187.3 640 102.7 960 115.5C1280 128.3 1600 238.7 1760 293.8L1920 349L1920 0L1760 0C1600 0 1280 0 960 0C640 0 320 0 160 0L0 0Z" fill="#cffffd"></path><path d="M0 278L160 251.3C320 224.7 640 171.3 960 175C1280 178.7 1600 239.3 1760 269.7L1920 300L1920 0L1760 0C1600 0 1280 0 960 0C640 0 320 0 160 0L0 0Z" fill="#d9fffe"></path><path d="M0 196L160 173C320 150 640 104 960 99.3C1280 94.7 1600 131.3 1760 149.7L1920 168L1920 0L1760 0C1600 0 1280 0 960 0C640 0 320 0 160 0L0 0Z" fill="#e3fffe"></path><path d="M0 243L160 239.3C320 235.7 640 228.3 960 191.2C1280 154 1600 87 1760 53.5L1920 20L1920 0L1760 0C1600 0 1280 0 960 0C640 0 320 0 160 0L0 0Z" fill="#edfffe"></path><path d="M0 106L160 99.8C320 93.7 640 81.3 960 65.3C1280 49.3 1600 29.7 1760 19.8L1920 10L1920 0L1760 0C1600 0 1280 0 960 0C640 0 320 0 160 0L0 0Z" fill="#f6ffff"></path><path d="M0 84L160 86.2C320 88.3 640 92.7 960 89.2C1280 85.7 1600 74.3 1760 68.7L1920 63L1920 0L1760 0C1600 0 1280 0 960 0C640 0 320 0 160 0L0 0Z" fill="#ffffff"></path></svg>