<svg id="visual" viewBox="0 0 1920 800" width="1920" height="800" xmlns="http://www.w3.org/2000/svg" xmlns:xlink="http://www.w3.org/1999/xlink" version="1.1"><path d="M0 88L160 94.2C320 100.3 640 112.7 960 101.3C1280 90 1600 55 1760 37.5L1920 20L1920 0L1760 0C1600 0 1280 0 960 0C640 0 320 0 160 0L0 0Z" fill="#87fffb"></path><path d="M0 17L160 73.8C320 130.7 640 244.3 960 263.7C1280 283 1600 208 1760 170.5L1920 133L1920 0L1760 0C1600 0 1280 0 960 0C640 0 320 0 160 0L0 0Z" fill="#95fffb"></path><path d="M0 132L160 160.7C320 189.3 640 246.7 960 303.7C1280 360.7 1600 417.3 1760 445.7L1920 474L1920 0L1760 0C1600 0 1280 0 960 0C640 0 320 0 160 0L0 0Z" fill="#a2fffc"></path><path d="M0 89L160 87.3C320 85.7 640 82.3 960 94.7C1280 107 1600 135 1760 149L1920 163L1920 0L1760 0C1600 0 1280 0 960 0C640 0 320 0 160 0L0 0Z" fill="#aefffc"></path><path d="M0 95L160 87.3C320 79.7 640 64.3 960 59.2C1280 54 1600 59 1760 61.5L1920 64L1920 0L1760 0C1600 0 1280 0 960 0C640 0 320 0 160 0L0 0Z" fill="#bafffd"></path><path d="M0 485L160 404.2C320 323.3 640 161.7 960 110.7C1280 59.7 1600 119.3 1760 149.2L1920 179L1920 0L1760 0C1600 0 1280 0 960 0C640 0 320 0 160 0L0 0Z" fill="#c5fffd"></path><path d="M0 300L160 309.8C320 319.7 640 339.3 960 325.5C1280 311.7 1600 264.3 1760 240.7L1920 217L1920 0L1760 0C1600 0 1280 0 960 0C640 0 320 0 160 0L0 0Z" fill="#cffffd"></path><path d="M0 12L160 56.3C320 100.7 640 189.3 960 214.3C1280 239.3 1600 200.7 1760 181.3L1920 162L1920 0L1760 0C1600 0 1280 0 960 0C640 0 320 0 160 0L0 0Z" fill="#d9fffe"></path><path d="M0 10L160 58C320 106 640 202 960 201.2C1280 200.3 1600 102.7 1760 53.8L1920 5L1920 0L1760 0C1600 0 1280 0 960 0C640 0 320 0 160 0L0 0Z" fill="#e3fffe"></path><path d="M0 20L160 22.5C320 25 640 30 960 49.3C1280 68.7 1600 102.3 1760 119.2L1920 136L1920 0L1760 0C1600 0 1280 0 960 0C640 0 320 0 160 0L0 0Z" fill="#edfffe"></path><path d="M0 123L160 129.2C320 135.3 640 147.7 960 128C1280 108.3 1600 56.7 1760 30.8L1920 5L1920 0L1760 0C1600 0 1280 0 960 0C640 0 320 0 160 0L0 0Z" fill="#f6ffff"></path><path d="M0 38L160 51.3C320 64.7 640 91.3 960 100.8C1280 110.3 1600 102.7 1760 98.8L1920 95L1920 0L1760 0C1600 0 1280 0 960 0C640 0 320 0 160 0L0 0Z" fill="#ffffff"></path></svg>