<svg id="visual" viewBox="0 0 1920 800" width="1920" height="800" xmlns="http://www.w3.org/2000/svg" xmlns:xlink="http://www.w3.org/1999/xlink" version="1.1"><path d="M0 417L160 464.3C320 511.7 640 606.3 960 552C1280 497.7 1600 294.3 1760 192.7L1920 91L1920 0L1760 0C1600 0 1280 0 960 0C640 0 320 0 160 0L0 0Z" fill="#87fffb"></path><path d="M0 542L160 495.7C320 449.3 640 356.7 960 374.8C1280 393 1600 522 1760 586.5L1920 651L1920 0L1760 0C1600 0 1280 0 960 0C640 0 320 0 160 0L0 0Z" fill="#95fffb"></path><path d="M0 437L160 415.2C320 393.3 640 349.7 960 353.7C1280 357.7 1600 409.3 1760 435.2L1920 461L1920 0L1760 0C1600 0 1280 0 960 0C640 0 320 0 160 0L0 0Z" fill="#a2fffc"></path><path d="M0 598L160 545.7C320 493.3 640 388.7 960 291.5C1280 194.3 1600 104.7 1760 59.8L1920 15L1920 0L1760 0C1600 0 1280 0 960 0C640 0 320 0 160 0L0 0Z" fill="#aefffc"></path><path d="M0 226L160 200.7C320 175.3 640 124.7 960 149.2C1280 173.7 1600 273.3 1760 323.2L1920 373L1920 0L1760 0C1600 0 1280 0 960 0C640 0 320 0 160 0L0 0Z" fill="#bafffd"></path><path d="M0 72L160 71.3C320 70.7 640 69.3 960 61.3C1280 53.3 1600 38.7 1760 31.3L1920 24L1920 0L1760 0C1600 0 1280 0 960 0C640 0 320 0 160 0L0 0Z" fill="#c5fffd"></path><path d="M0 267L160 266.5C320 266 640 265 960 222.8C1280 180.7 1600 97.3 1760 55.7L1920 14L1920 0L1760 0C1600 0 1280 0 960 0C640 0 320 0 160 0L0 0Z" fill="#cffffd"></path><path d="M0 151L160 127C320 103 640 55 960 70.3C1280 85.7 1600 164.3 1760 203.7L1920 243L1920 0L1760 0C1600 0 1280 0 960 0C640 0 320 0 160 0L0 0Z" fill="#d9fffe"></path><path d="M0 256L160 216.2C320 176.3 640 96.7 960 75.2C1280 53.7 1600 90.3 1760 108.7L1920 127L1920 0L1760 0C1600 0 1280 0 960 0C640 0 320 0 160 0L0 0Z" fill="#e3fffe"></path><path d="M0 208L160 196.5C320 185 640 162 960 141.2C1280 120.3 1600 101.7 1760 92.3L1920 83L1920 0L1760 0C1600 0 1280 0 960 0C640 0 320 0 160 0L0 0Z" fill="#edfffe"></path><path d="M0 17L160 14.7C320 12.3 640 7.7 960 19.5C1280 31.3 1600 59.7 1760 73.8L1920 88L1920 0L1760 0C1600 0 1280 0 960 0C640 0 320 0 160 0L0 0Z" fill="#f6ffff"></path><path d="M0 96L160 81.3C320 66.7 640 37.3 960 28.7C1280 20 1600 32 1760 38L1920 44L1920 0L1760 0C1600 0 1280 0 960 0C640 0 320 0 160 0L0 0Z" fill="#ffffff"></path></svg>